<svg xmlns="http://www.w3.org/2000/svg" viewBox="0 0 64 64" width="64" height="64">
  <!-- 像素风格抽象女性头像1 - 粉色圆润风格 -->
  <rect width="64" height="64" fill="#2d132c"/>
  <!-- 头发 -->
  <rect x="8" y="4" width="48" height="8" fill="#c44569"/>
  <rect x="4" y="12" width="8" height="40" fill="#c44569"/>
  <rect x="52" y="12" width="8" height="40" fill="#c44569"/>
  <rect x="8" y="52" width="12" height="8" fill="#c44569"/>
  <rect x="44" y="52" width="12" height="8" fill="#c44569"/>
  <!-- 脸部 -->
  <rect x="12" y="12" width="40" height="40" fill="#feb4b4"/>
  <!-- 眼睛 -->
  <rect x="18" y="24" width="8" height="10" fill="#2d132c"/>
  <rect x="38" y="24" width="8" height="10" fill="#2d132c"/>
  <rect x="20" y="26" width="4" height="6" fill="#ff6b9d"/>
  <rect x="40" y="26" width="4" height="6" fill="#ff6b9d"/>
  <!-- 腮红 -->
  <rect x="14" y="36" width="6" height="4" fill="#ff9a9e"/>
  <rect x="44" y="36" width="6" height="4" fill="#ff9a9e"/>
  <!-- 嘴巴 -->
  <rect x="26" y="42" width="12" height="4" fill="#c44569"/>
  <rect x="28" y="46" width="8" height="2" fill="#c44569"/>
</svg>
